<?xml version="1.0" encoding="UTF-8" standalone="no"?>
<!DOCTYPE svg PUBLIC "-//W3C//DTD SVG 1.1//EN" "http://www.w3.org/Graphics/SVG/1.1/DTD/svg11.dtd">
<svg width="100%" height="100%" viewBox="0 0 68 68" version="1.1" xmlns="http://www.w3.org/2000/svg" xmlns:xlink="http://www.w3.org/1999/xlink" xml:space="preserve" xmlns:serif="http://www.serif.com/" style="fill-rule:evenodd;clip-rule:evenodd;stroke-linejoin:round;stroke-miterlimit:2;">
    <path d="M62.04,20.422C64.156,24.649 65.353,29.415 65.367,34.458C65.415,51.908 51.288,66.114 33.838,66.163C16.388,66.212 2.182,52.084 2.133,34.634C2.085,17.184 16.212,2.978 33.662,2.929C40.716,2.91 47.239,5.206 52.512,9.103C51.536,10.378 50.956,11.973 50.956,13.702C50.956,17.885 54.352,21.281 58.535,21.281C59.799,21.281 60.992,20.971 62.04,20.422ZM27.102,26.131L27.102,29.464L30.655,29.464C29.507,33.469 27.627,37.108 25.014,40.38L26.369,43.823C28.079,41.308 29.532,38.451 30.728,35.252L30.728,50.27L33.732,50.27L33.732,34.922C34.635,36.534 35.465,38.084 36.222,39.574L38.054,36.827C36.515,34.727 35.075,32.895 33.732,31.332L33.732,29.464L36.515,29.464L36.515,26.131L33.732,26.131L33.732,21.26C34.831,20.893 36.015,20.393 37.285,19.758L35.6,16.937C33.329,18.183 30.386,19.025 26.772,19.465L27.834,22.468C28.665,22.395 29.629,22.261 30.728,22.065L30.728,26.131L27.102,26.131ZM40.581,22.505L37.871,22.322C37.798,26.302 37.382,30.063 36.625,33.603L39.336,34.336C40.093,30.453 40.508,26.51 40.581,22.505ZM44.757,31.735L44.757,16.937L41.68,16.937L41.68,31.735C41.656,33.567 41.192,35.984 40.288,38.988C39.336,42.04 37.675,45.032 35.307,47.962L37.688,50.599C39.348,48.426 40.642,46.277 41.57,44.153C42.474,41.955 43.023,39.928 43.219,38.072C43.414,39.953 43.939,41.967 44.794,44.116C45.648,46.338 46.808,48.438 48.273,50.416L50.654,47.779C48.481,44.897 46.967,41.955 46.112,38.951C45.258,36.07 44.806,33.665 44.757,31.735ZM26.296,35.105L26.296,31.735C25.734,32.053 24.892,32.505 23.769,33.091L23.769,26.461L26.516,26.461L26.516,23.128L23.769,23.128L23.769,16.901L20.582,16.901L20.582,23.128L17.285,23.128L17.285,26.461L20.582,26.461L20.582,34.409C19.483,34.8 18.238,35.179 16.846,35.545L17.688,38.878L20.582,37.816L20.582,45.435C20.582,46.411 20.277,46.9 19.666,46.9C19.031,46.9 18.262,46.839 17.359,46.717L18.054,49.757L20.765,49.757C22.767,49.757 23.769,48.585 23.769,46.24L23.769,36.424L26.296,35.105ZM49.592,22.029L46.845,21.846C46.747,25.802 46.356,29.635 45.673,33.347L48.383,34.116C49.116,30.258 49.519,26.229 49.592,22.029ZM58.535,8.551C61.378,8.551 63.686,10.859 63.686,13.702C63.686,16.545 61.378,18.853 58.535,18.853C55.692,18.853 53.384,16.545 53.384,13.702C53.384,10.859 55.692,8.551 58.535,8.551Z" style="fill:rgb(252,68,1);"/>
</svg>
